<svg xmlns="http://www.w3.org/2000/svg" preserveAspectRatio="xMidYMid meet" version="1.0" viewBox="0 0 3000 2220"><g fill="#000" stroke="none"><path d="M1408 420c-60 69-132 115-400 257C755 810 750 812 758 839c17 60 6 194-22 276-28 81-77 171-116 213-26 27-28 24 70 89 99 65 100 66 100 54 0-5-31-32-70-58-38-26-70-51-70-55 0-3 46-30 103-58 56-29 117-62 136-73l34-20-5 97c-4 68-2 96 6 93 6-2 13-39 16-87 6-94-14-73 153-162l77-42v-41c0-23 3-83 6-133l7-90 120-66c66-36 124-66 130-66 6 0 7 32 3 89-4 58-3 92 4 96 6 4 10-26 10-89 0-53 3-96 6-96s62 30 130 67l123 68 3 130 3 130 118 64 117 63 1 112c1 61 4 135 7 164l7 53 125-79c69-43 141-89 161-102l36-24-38-50c-50-66-93-155-113-232-16-63-20-188-7-234 7-24-3-30-256-166-289-156-317-173-384-246l-46-50-35 42zm28 135-1 125-109 61c-60 33-110 58-112 57-5-5 209-368 217-368 4 0 6 56 5 125zm142 73c97 162 118 204 86 172-5-5-54-34-109-63l-100-53-3-129c-2-88 1-126 7-120 6 6 60 93 119 193zm-11-101c16 15 72 45 321 178 142 75 199 111 189 116-7 5-71 20-141 34L1810 881l-45-27c-38-22-57-47-136-180-50-85-95-157-100-160-5-3-9-10-9-16 0-10 17 1 47 29zm-228 10c-34 58-119 203-146 250-16 28-39 49-73 67l-49 26L950 855c-66-13-127-28-136-33-18-10-13-13 294-177 101-54 196-108 210-121 39-34 47-29 21 13zM877 860c40 10 100 22 133 26 33 4 60 8 60 10 0 8-127 260-134 264-4 3-22-31-40-75-18-44-50-115-70-159-20-43-36-80-36-82 0-7 12-4 87 16zm1172 92c-28 62-60 137-71 165-12 29-24 53-27 52-6 0-132-259-131-270 0-4 26-9 58-13 31-4 89-15 127-25 39-11 75-20 82-20 7-1-10 48-38 111zm-892 24-4 116-98 54c-54 30-101 54-106 54-4 0 28-71 72-157 72-143 100-181 132-183 5 0 7 52 4 116zm610-98c19 15 173 301 173 322 0 4-47-19-105-52l-105-60V974c0-63 3-114 8-114 4 0 17 8 29 18zm358 232c22 68 60 145 92 187 13 18 21 33 18 33-7 0-248-130-258-139-4-5 15-60 43-125 28-64 56-128 62-144 11-24 12-20 18 53 4 45 15 105 25 135zM810 930c0 5 25 64 55 132 30 67 51 126 47 129-4 4-65 37-137 75l-130 68 23-34c67-101 121-258 122-353 0-23 4-36 10-32 6 3 10 10 10 15zm1176 289c5 5 65 39 133 74l124 65-129 86-129 85-7-27c-8-34-15-292-7-292 3 0 9 4 15 9"/><path d="M1385 946c-27 19-80 53-116 74-71 42-79 53-79 103 1 71 31 109 142 180 58 37 108 67 111 67 4 0 52-29 107-65 116-75 140-106 140-182V1070l-120-80c-67-44-124-80-128-79-4 0-29 16-57 35zm74 30c5 28 18 41 72 72 27 15 49 30 49 33 0 9-131 90-140 87-20-9-140-84-140-88 0-3 17-14 37-25 56-30 93-65 93-87 0-25 24-18 29 8zm-209 93c0 12 29 37 91 76 51 32 97 58 104 58 19 0 194-117 198-133 3-10 8-4 16 15 17 40 9 50-76 107-40 26-85 67-104 92-18 25-35 46-38 46-3 0-18-20-32-44-19-30-51-60-108-97-69-44-81-56-81-80 0-33 9-59 21-59 5 0 9 8 9 19" fill="#da451a"/><path d="M857.49 1481c-30 24-25.49 59 .51 82 24 22 55 21 75-1 48-53-20.51-124-75.51-81ZM284 1509c-2 2-4 67-4 143 0 134-1 140-25 163-16 17-35 25-60 25s-44-8-60-25c-24-23-25-29-25-165v-140H15l1 135c2 166 7 195 42 228 93 89 241 70 300-38 13-24 17-61 17-179v-149l-43-1c-24 0-46 1-48 3ZM53.5 1827.37l67.38 17.09s-33.2-52.49-32.2-79.49l-35.18 62.4ZM321 1812c-5 13-17 30-27 38-19 17 6.42 34.54 34.42-11.46 22-36 6.58-62.54-7.42-26.54Z"/><path d="M2411.5 1529.65c-22.39 33.6-16.52 34.25-16.52 78.86 2 13-18.02 14.33-20.88 14.33-21.35 0-27.26 40.45-12.77 49.29 8.05 4.9 5.64 2.26 31.15 2.97 14.56.42 2.83 75.25 2.5 244.12v-2.12l24.67.95 41.83.47 1.48-114.52.45-127.33 36.32 2.2c18.2-.77 38.14 9.43 33.72-26.62-4.84-39.41-16.19-29.41-53.56-29.41-24 0-19.15-12.27-19.15-21.27 0-32 2.2-50.94 33.2-50.94 24 0 30.8 10.41 42.74-19.46 11.57-38.43 15.35-31.17-44.65-31.17-35 0-62.06 1.98-80.5 29.65Zm17.1 121.01c0 5-12.96 62.96-22.96 75.96l34.15-38.46 8.75-52.68c-30.1-3-30.4 24.1-44.58 15.4l-8.98 18.65 49.14-9.12c-25.66-37.77-15.52-13.75-15.52-9.75Z" fill="#da451a"/><path d="M588 1634c-36 24-38 24-38 6 0-17-7-20-45-20H460v300h88l4-94c3-105 19-136 68-136 56 0 65 18 65 129V1920H770v-120c0-117-1-120-28-151-40-44-103-51-154-15Zm-71.41 104.47c0 18 21.57 15.94 13.57 10.94-6-4 18.54-22.1 23.54-39.1 3-8-37.11 19.16-37.11 28.16ZM1103 1631c-58 28-83 72-83 143 0 50 4 60 35 95 40 44 104 67 160 57 32-6 105-58 105-75 0-4-16-15-35-24-34-16-36-16-55 3-37 37-99 20-119-33-13-32 3-83 29-97 28-15 71-12 92 7 17 15 20 15 53-3 19-10 35-21 35-25 0-12-36-38-73-54-50-21-94-19-144 6zm351-2c-76 34-108 105-84 184 24 81 119 132 200 108 146-44 169-226 36-290-52-26-98-26-152-2zm125 78c35 29 37 74 6 111-69 82-181-17-114-102 25-31 76-35 108-9zm341.03-87c-12 5-41.9 22.26-47.9 33.26-15 29-30.13 21.74-24.13-8.26 4-24 2-25-42-25H1760v300h90v-85c0-78 2-88 25-110 14-15 44.51-22.87 60.51-22.87 26 0 19.5-5.13 20.5-47.13 1-48 10.02-53-35.98-35Zm-125.22 116.03c-16 30 52.02 19.61 52.02-13.39 0-36-36.83-56.64-18.83-38.64 11 11-25.19 35.03-33.19 52.03Zm290.2-113.03c-93 43-124 169-59 246 50 60 137 74 218 36 41-20 45-34 16-60-18-17-21-17-56 0-39 18-77 14-106-12-10-9-18-22-18-30 .01-11 22.01-13 110.01-10l110 3v-41c0-45-27-96-63-120-35-22-115-28-152-12Zm119 79c9 12 16 26 16 30 0 5-31 8-70 8-38 0-70-3-70-8 0-4 7-18 16-30 11-16 25-22 54-22 29 0 43 6 54 22Zm-189.58 72c-4 9 31.57 16 25.57 16-11 0 5.16 15.96 16.16 4.96 11-10-35.73-37.96-41.73-20.96ZM855 1770v150h49c40 0 47-3 42-16-3-9-6-76-6-150V1620h-85v150"/><path d="M2556 1627c-2 2 17 69 43 148 46 144 46 144 76 145 33 0 37-9 77-168 6-23 14-42 17-42 3 0 19 47 35 105 28 101 30 105 56 105 27 0 30-6 77-145l49-145h-30c-31 0-32 1-60 100-16 55-32 100-36 100-4 0-10-14-14-30-3-17-15-62-27-100-20-65-23-70-50-70-26 0-30 5-48 68-12 38-24 83-27 100-4 18-10 32-14 32-4 0-20-45-35-99-25-94-28-99-56-103-16-3-31-3-33-1" fill="#da451a"/></g></svg>
